HIERARCHY
ROOT Pelvis
{
	OFFSET 0.000000 0.941512 0.000000
	CHANNELS 6 Xposition Yposition Zposition Zrotation Yrotation Xrotation 
	JOINT Pelvis_L_Hip
	{
		OFFSET 0.000000 0.000000 0.000000
		CHANNELS 3 Zrotation Yrotation Xrotation
		JOINT L_Hip
		{
			OFFSET 0.062321 -0.080322 -0.016990
			CHANNELS 3 Zrotation Yrotation Xrotation
			JOINT L_Knee
			{
				OFFSET 0.093051 -0.381305 -0.029784
				CHANNELS 3 Zrotation Yrotation Xrotation
				JOINT L_Ankle
				{
					OFFSET -0.010371 -0.431000 -0.033614
					CHANNELS 3 Zrotation Yrotation Xrotation
					End Site #name: L_Foot
					{
						OFFSET 0.069299 -0.038670 0.119418
					}
				}
			}
		}
	}
	JOINT Pelvis_R_Hip
	{
		OFFSET 0.000000 0.000000 0.000000
		CHANNELS 3 Zrotation Yrotation Xrotation
		JOINT R_Hip
		{
			OFFSET -0.055334 -0.094904 -0.002373
			CHANNELS 3 Zrotation Yrotation Xrotation
			JOINT R_Knee
			{
				OFFSET -0.064207 -0.384370 -0.019592
				CHANNELS 3 Zrotation Yrotation Xrotation
				JOINT R_Ankle
				{
					OFFSET 0.025418 -0.419734 -0.065953
					CHANNELS 3 Zrotation Yrotation Xrotation
					End Site #name: R_Foot
					{
						OFFSET -0.057233 -0.039888 0.132134
					}
				}
			}
		}
	}
	JOINT Pelvis_Spine1
	{
		OFFSET 0.000000 0.000000 0.000000
		CHANNELS 3 Zrotation Yrotation Xrotation
		JOINT Spine1
		{
			OFFSET -0.005562 0.124093 -0.043360
			CHANNELS 3 Zrotation Yrotation Xrotation
			JOINT Spine2
			{
				OFFSET 0.012244 0.139499 0.029894
				CHANNELS 3 Zrotation Yrotation Xrotation
				JOINT Spine3
				{
					OFFSET -0.002556 0.056561 0.009225
					CHANNELS 3 Zrotation Yrotation Xrotation
					JOINT Spine3_Neck
					{
						OFFSET 0.000000 0.000000 0.000000
						CHANNELS 3 Zrotation Yrotation Xrotation
						JOINT Neck
						{
							OFFSET -0.005205 0.217920 -0.024551
							CHANNELS 3 Zrotation Yrotation Xrotation
							End Site #name: Head
							{
								OFFSET 0.002365 0.091850 0.046637
							}
						}
					}
					JOINT Spine3_L_Collar
					{
						OFFSET 0.000000 0.000000 0.000000
						CHANNELS 3 Zrotation Yrotation Xrotation
						JOINT L_Collar
						{
							OFFSET 0.072225 0.116603 -0.009480
							CHANNELS 3 Zrotation Yrotation Xrotation
							JOINT L_Shoulder
							{
								OFFSET 0.115937 -0.058643 -0.021018
								CHANNELS 3 Zrotation Yrotation Xrotation
								JOINT L_Elbow
								{
									OFFSET 0.021994 -0.254722 -0.024492
									CHANNELS 3 Zrotation Yrotation Xrotation
									End Site #name: L_Wrist
									{
										OFFSET 0.048810 -0.240214 0.103329
									}
								}
							}
						}
					}
					JOINT Spine3_R_Collar
					{
						OFFSET 0.000000 0.000000 0.000000
						CHANNELS 3 Zrotation Yrotation Xrotation
						JOINT R_Collar
						{
							OFFSET -0.073372 0.120704 -0.024611
							CHANNELS 3 Zrotation Yrotation Xrotation
							JOINT R_Shoulder
							{
								OFFSET -0.108089 -0.054969 -0.020504
								CHANNELS 3 Zrotation Yrotation Xrotation
								JOINT R_Elbow
								{
									OFFSET -0.033684 -0.260739 0.009889
									CHANNELS 3 Zrotation Yrotation Xrotation
									End Site #name: R_Wrist
									{
										OFFSET -0.067980 -0.232763 0.118463
									}
								}
							}
						}
					}
				}
			}
		}
	}
}
MOTION
Frames: 15
Frame Time: 0.041667
-0.003333 0.044179 0.004325 -2.070379 3.373109 86.025152 0.000000 0.000000 0.000000 17.269922 -4.249333 0.850192 -19.053666 4.246909 9.243437 -7.068270 7.480117 20.752799 0.000000 0.000000 0.000000 -10.723517 2.897301 -3.129000 4.314068 -0.777533 12.257498 22.532122 23.305987 26.711636 0.000000 0.000000 0.000000 5.521632 -3.502518 5.951109 -1.446169 -0.214533 -8.134439 1.712840 4.506369 -0.673267 0.000000 0.000000 0.000000 -3.034331 1.519897 -7.547302 0.000000 0.000000 0.000000 53.050527 -5.967873 6.834597 35.128117 2.817648 -27.516881 80.901567 46.279725 -17.877978 0.000000 0.000000 0.000000 -61.869494 10.636964 0.821681 -19.498879 -1.326863 -12.830186 -90.230439 -51.952361 -14.876172 
-0.003007 0.044449 0.004630 -2.079300 3.417827 85.933669 0.000000 0.000000 0.000000 17.317643 -4.257987 0.831925 -18.964538 4.239851 9.342034 -7.163421 7.407737 20.861033 0.000000 0.000000 0.000000 -10.722363 2.885295 -3.041464 4.325982 -0.780716 12.227416 22.586027 23.245296 26.836041 0.000000 0.000000 0.000000 5.574706 -3.531147 5.969971 -1.095442 -0.242036 -8.057291 2.043280 4.350284 -1.500150 0.000000 0.000000 0.000000 0.824590 -0.138034 -7.159136 0.000000 0.000000 0.000000 52.718153 -6.889502 5.464036 35.244710 2.583274 -26.414814 84.392991 44.857024 -12.514465 0.000000 0.000000 0.000000 -62.859495 11.778289 -0.698699 -19.139600 -1.218755 -11.265092 -90.673012 -51.725890 -14.128521 
-0.002631 0.044566 0.005052 -2.163721 3.432989 85.914765 0.000000 0.000000 0.000000 17.369484 -4.270139 0.793042 -19.073157 4.277249 9.369179 -6.986053 7.670546 20.780635 0.000000 0.000000 0.000000 -10.748613 2.893939 -3.079915 4.347228 -0.786656 12.244489 22.666207 23.252673 26.947025 0.000000 0.000000 0.000000 5.565724 -3.538914 6.039513 -0.802969 -0.275703 -8.216815 2.397116 4.466015 -1.686438 0.000000 0.000000 0.000000 2.768002 -0.944786 -7.626684 0.000000 0.000000 0.000000 52.536923 -6.959999 5.347144 34.202304 2.382904 -26.182609 82.911667 45.529136 -14.960286 0.000000 0.000000 0.000000 -63.218781 12.190593 -1.330616 -19.637916 -1.261029 -10.525721 -90.617761 -51.617340 -14.061824 
-0.002830 0.044499 0.005042 -2.200126 3.389282 85.949465 0.000000 0.000000 0.000000 17.405991 -4.286606 0.669267 -19.189722 4.335918 9.489252 -6.942451 7.726082 20.756551 0.000000 0.000000 0.000000 -10.841650 2.921241 -3.156367 4.375592 -0.797692 12.376873 22.509039 23.212994 26.741911 0.000000 0.000000 0.000000 5.605089 -3.564706 6.072332 -0.752262 -0.287691 -8.390188 2.611396 4.576777 -1.916330 0.000000 0.000000 0.000000 3.907053 -1.424122 -7.677368 0.000000 0.000000 0.000000 52.736625 -7.020698 5.334878 33.011405 2.231609 -26.254268 81.632262 45.983566 -16.941208 0.000000 0.000000 0.000000 -64.000950 12.387030 -1.517552 -19.059213 -1.185403 -10.464695 -90.435183 -51.682236 -14.381341 
-0.003036 0.044285 0.005338 -2.278279 3.348635 85.879949 0.000000 0.000000 0.000000 17.322006 -4.249962 0.817561 -18.999672 4.281634 9.466138 -7.031990 7.543145 20.761490 0.000000 0.000000 0.000000 -10.798786 2.906330 -3.103337 4.306467 -0.773309 12.353543 22.727608 23.185363 27.072287 0.000000 0.000000 0.000000 5.615704 -3.592528 6.211618 -0.808560 -0.288053 -8.522517 2.677609 4.471419 -2.221153 0.000000 0.000000 0.000000 4.642873 -1.774940 -7.187634 0.000000 0.000000 0.000000 52.559967 -7.270750 4.893267 33.008319 2.054882 -25.399888 81.829657 45.908188 -16.724539 0.000000 0.000000 0.000000 -64.252506 12.696550 -1.885713 -18.787090 -1.147002 -10.443645 -89.649230 -51.783691 -15.316381 
-0.002971 0.044281 0.005159 -2.241800 3.490337 85.946503 0.000000 0.000000 0.000000 17.503736 -4.311089 0.670067 -19.041334 4.307375 9.539867 -7.120679 7.405233 20.796424 0.000000 0.000000 0.000000 -10.632073 2.877026 -3.130140 4.312451 -0.777243 12.420558 22.577714 23.523514 26.613050 0.000000 0.000000 0.000000 5.715396 -3.606573 5.986668 -0.716734 -0.285326 -8.277929 2.821887 4.542858 -2.216974 0.000000 0.000000 0.000000 4.916167 -1.875406 -7.383525 0.000000 0.000000 0.000000 52.140506 -7.132446 5.012303 33.339506 2.162937 -25.703244 82.016746 45.787023 -16.339969 0.000000 0.000000 0.000000 -64.280702 12.584640 -1.733208 -19.141678 -1.195546 -10.421030 -89.393659 -51.720282 -15.516095 
-0.003315 0.044469 0.005261 -2.242304 3.445148 86.032930 0.000000 0.000000 0.000000 17.431146 -4.301837 0.618420 -18.999072 4.285062 9.475104 -7.052419 7.664852 20.924416 0.000000 0.000000 0.000000 -10.635719 2.891011 -3.235059 4.289010 -0.770406 12.448824 22.546650 23.441097 26.623860 0.000000 0.000000 0.000000 5.756729 -3.602177 5.843197 -0.748605 -0.286971 -8.383342 2.834191 4.459343 -2.113898 0.000000 0.000000 0.000000 4.614290 -1.765709 -7.164260 0.000000 0.000000 0.000000 52.011545 -7.091910 4.979924 33.302461 2.157446 -25.698366 82.094088 45.796480 -16.292489 0.000000 0.000000 0.000000 -64.517342 12.554835 -1.598629 -18.751155 -1.152046 -10.782121 -89.572149 -51.731469 -15.294818 
-0.003291 0.044385 0.005362 -2.255589 3.481643 86.092398 0.000000 0.000000 0.000000 17.467297 -4.313701 0.625283 -18.985406 4.267213 9.388869 -7.105127 7.458796 20.833069 0.000000 0.000000 0.000000 -10.600307 2.889428 -3.269925 4.249042 -0.757954 12.381848 23.355825 23.617391 27.700127 0.000000 0.000000 0.000000 5.707865 -3.548676 5.674476 -0.646027 -0.286767 -8.168572 2.973463 4.487275 -1.993997 0.000000 0.000000 0.000000 4.817937 -1.823358 -7.551036 0.000000 0.000000 0.000000 52.238158 -7.202699 4.907637 32.670953 2.039850 -25.550091 82.618561 46.023169 -16.080166 0.000000 0.000000 0.000000 -64.536482 12.272049 -1.147726 -18.852280 -1.181121 -11.227231 -89.610244 -51.706379 -15.223329 
-0.003435 0.044274 0.005678 -2.248135 3.411950 86.228508 0.000000 0.000000 0.000000 17.355407 -4.303451 0.496566 -18.930650 4.254636 9.391847 -7.187994 7.434514 20.974245 0.000000 0.000000 0.000000 -10.873993 2.958773 -3.377838 4.509633 -0.838393 12.280724 22.694313 23.282605 26.979655 0.000000 0.000000 0.000000 5.741741 -3.499264 5.303388 -0.680436 -0.270774 -7.892922 3.033123 4.365321 -2.034550 0.000000 0.000000 0.000000 4.415471 -1.687898 -7.088367 0.000000 0.000000 0.000000 52.271842 -7.251191 4.791195 32.149992 1.883430 -25.113060 83.104197 46.148798 -15.837846 0.000000 0.000000 0.000000 -64.791884 12.256758 -0.997140 -18.544476 -1.148025 -11.645424 -89.659281 -51.733145 -15.166494 
-0.003445 0.044035 0.006763 -2.340478 3.393768 86.291524 0.000000 0.000000 0.000000 17.327597 -4.293032 0.564712 -18.846376 4.207719 9.231859 -7.205200 7.491912 21.084934 0.000000 0.000000 0.000000 -10.949525 2.984990 -3.467167 4.595566 -0.863358 12.247518 22.825176 23.326499 27.142795 0.000000 0.000000 0.000000 5.798856 -3.481998 5.050313 -0.772013 -0.247212 -7.580685 3.214959 4.325491 -2.027132 0.000000 0.000000 0.000000 3.331554 -1.261393 -6.478156 0.000000 0.000000 0.000000 51.767799 -6.995198 4.954640 32.081853 1.914971 -25.305696 83.137700 46.258419 -16.007241 0.000000 0.000000 0.000000 -64.903114 11.874736 -0.242149 -18.233035 -1.135034 -12.865599 -89.044063 -51.898294 -16.010742 
-0.003490 0.043747 0.007444 -2.364630 3.451108 86.558685 0.000000 0.000000 0.000000 17.406399 -4.343019 0.342889 -18.915268 4.223105 9.177237 -7.249753 7.554430 21.250110 0.000000 0.000000 0.000000 -10.825898 2.997676 -3.764008 4.591178 -0.861339 12.166607 23.464085 22.930600 28.376352 0.000000 0.000000 0.000000 5.917606 -3.452646 4.529719 -0.810048 -0.235638 -7.414367 3.267652 4.305932 -1.639101 0.000000 0.000000 0.000000 1.944523 -0.657577 -6.498465 0.000000 0.000000 0.000000 51.689229 -6.919954 4.998476 32.009718 1.883616 -25.206695 83.307558 46.529156 -16.194858 0.000000 0.000000 0.000000 -64.920552 11.355089 0.639792 -18.084694 -1.143410 -14.160887 -88.338292 -51.988429 -16.825012 
-0.003202 0.043448 0.008010 -2.358692 3.363535 86.616151 0.000000 0.000000 0.000000 17.320417 -4.324844 0.331763 -18.902340 4.229497 9.220005 -7.382722 7.452484 21.408876 0.000000 0.000000 0.000000 -11.084130 3.050256 -3.761341 4.845360 -0.937980 12.063940 23.437847 22.786821 28.456309 0.000000 0.000000 0.000000 6.078422 -3.540052 4.572254 -1.109450 -0.210502 -7.509959 2.843141 4.293843 -1.505349 0.000000 0.000000 0.000000 -1.034916 0.644261 -6.880034 0.000000 0.000000 0.000000 51.921762 -6.906029 5.027739 32.418493 1.862725 -24.842405 83.370461 46.452734 -16.020234 0.000000 0.000000 0.000000 -64.351876 11.231443 0.771483 -18.000649 -1.127951 -14.223338 -88.347454 -52.178182 -17.061584 
-0.003428 0.043135 0.008848 -2.373102 3.346060 86.934083 0.000000 0.000000 0.000000 17.299625 -4.355201 0.081524 -18.815965 4.204734 9.167392 -7.416149 7.483505 21.530487 0.000000 0.000000 0.000000 -11.118415 3.095064 -4.052446 4.958182 -0.971458 11.949299 23.531086 22.289588 28.968078 0.000000 0.000000 0.000000 6.040192 -3.445321 4.117665 -1.151263 -0.204844 -7.471149 3.021422 4.301453 -1.204033 0.000000 0.000000 0.000000 -3.386921 1.657085 -7.108534 0.000000 0.000000 0.000000 52.190000 -6.567716 5.539299 31.712669 1.990522 -25.951329 83.016111 46.476999 -16.351508 0.000000 0.000000 0.000000 -64.275460 10.809577 1.434557 -17.959451 -1.144078 -15.164986 -87.774828 -52.332956 -17.876871 
-0.003049 0.042984 0.009087 -2.318514 3.280289 87.038408 0.000000 0.000000 0.000000 17.182418 -4.342289 -0.028559 -18.667147 4.178217 9.243091 -7.491844 7.302074 21.499250 0.000000 0.000000 0.000000 -11.049311 3.102774 -4.250401 4.661060 -0.888727 12.253506 23.225341 22.311092 28.495869 0.000000 0.000000 0.000000 6.017622 -3.427344 4.069116 -1.395942 -0.193490 -7.700644 2.784980 4.456379 -0.899540 0.000000 0.000000 0.000000 -7.109363 3.215122 -7.985997 0.000000 0.000000 0.000000 52.345295 -6.483608 5.751384 32.386971 2.254733 -26.802705 82.717097 46.445212 -16.502316 0.000000 0.000000 0.000000 -63.126248 10.329975 1.870091 -18.588507 -1.257798 -15.284279 -87.182978 -52.398456 -18.634138 
-0.002805 0.042792 0.009113 -2.377100 3.268148 87.079780 0.000000 0.000000 0.000000 17.213674 -4.350915 -0.046298 -18.687767 4.186221 9.230161 -7.500144 7.376346 21.600854 0.000000 0.000000 0.000000 -11.129452 3.123641 -4.289221 4.711234 -0.902152 12.146014 23.500280 22.161526 29.015736 0.000000 0.000000 0.000000 5.962786 -3.404126 4.083121 -1.501106 -0.183550 -7.697339 2.720565 4.505952 -0.711293 0.000000 0.000000 0.000000 -9.763284 4.212836 -9.590618 0.000000 0.000000 0.000000 52.511259 -6.379426 5.946483 32.584612 2.324893 -27.008078 82.243483 46.704986 -17.319123 0.000000 0.000000 0.000000 -62.517648 9.936050 2.341922 -19.087069 -1.361538 -15.759492 -87.241055 -52.362661 -18.504851 
